Coordinates
version=1
nRows=10
nColumns=22
inDegrees=yes

Units are S.I. units (second, meters, Newtons, ...)
If the header above contains a line with 'inDegrees', this indicates whether rotational values are in degrees (yes) or radians (no).

endheader
time	pelvis_tilt	pelvis_list	pelvis_rotation	pelvis_tx	pelvis_ty	pelvis_tz	hip_flexion_r	hip_adduction_r	hip_rotation_r	knee_angle_r	ankle_angle_r	subtalar_angle_r	hip_flexion_l	hip_adduction_l	hip_rotation_l	knee_angle_l	ankle_angle_l	subtalar_angle_l	lumbar_extension	lumbar_bending	lumbar_rotation
      2.89000000	      9.95181563	     -2.17456220	      6.50866741	      0.53649120	      0.94258721	     -0.09987640	     10.28812042	      1.02842327	     -2.46529034	    -60.07332872	     -1.42534430	      8.99838611	      4.30087143	     -0.16677288	     -1.91065122	    -29.17658160	     22.84955695	    -20.71576218	    -17.65369848	      1.96689538	    -10.46602266
      2.90000000	      9.86254623	     -1.91480634	      6.38852451	      0.52897225	      0.94167324	     -0.09923966	      8.68616986	      0.97928298	     -2.37972484	    -60.39339350	     -1.88555561	      9.31524117	      4.99875058	      0.11492488	     -2.07607435	    -29.38541693	     22.47333437	    -20.51379803	    -17.41223759	      1.65620615	    -10.29325559
      2.91000000	      9.71367861	     -1.69806513	      6.25357480	      0.52135528	      0.94054665	     -0.09851779	      7.11039476	      0.98715614	     -2.28721872	    -60.48467835	     -2.46082911	      9.48607601	      5.81855198	      0.36312050	     -2.19028668	    -29.67680837	     22.07036615	    -20.49086498	    -17.09256853	      1.38634618	    -10.08892083
      2.92000000	      9.61142086	     -1.50671946	      6.08505348	      0.51371858	      0.93940240	     -0.09769632	      5.44046576	      1.03535289	     -2.18154115	    -60.33179501	     -3.09781536	     10.00212232	      6.60479386	      0.56163643	     -2.36441156	    -29.99330954	     21.72660202	    -20.37162598	    -16.81043333	      1.14532602	     -9.81858494
      2.93000000	      9.46891895	     -1.36006225	      5.89634677	      0.50595359	      0.93809832	     -0.09678213	      3.81031099	      1.14916165	     -2.03926681	    -59.97270242	     -3.70879230	     10.34373881	      7.48477338	      0.71786976	     -2.50407514	    -30.37430024	     21.34898006	    -20.34648455	    -16.47384148	      0.95019243	     -9.52032607
      2.94000000	      9.34693712	     -1.25347553	      5.67511231	      0.49808405	      0.93674689	     -0.09575986	      2.15912630	      1.32643261	     -1.84436947	    -59.40370825	     -4.26016886	     10.75628633	      8.37436453	      0.81771139	     -2.65862863	    -30.79503898	     20.99215400	    -20.31824955	    -16.15582711	      0.80113628	     -9.18015670
      2.95000000	      9.22830805	     -1.18352326	      5.42588577	      0.49004772	      0.93532513	     -0.09465185	      0.52894822	      1.56040576	     -1.58541336	    -58.64577345	     -4.71466911	     11.12854872	      9.29248255	      0.87480799	     -2.80200095	    -31.24733551	     20.62183894	    -20.31845496	    -15.84510556	      0.69624197	     -8.79984906
      2.96000000	      9.11652569	     -1.14212968	      5.14599425	      0.48185418	      0.93384819	     -0.09347187	     -1.07588878	      1.82192896	     -1.28579366	    -57.70285169	     -5.03204518	     11.46868491	     10.22377974	      0.89523228	     -2.94708266	    -31.71392441	     20.24429663	    -20.34432389	    -15.54559304	      0.62691410	     -8.38309234
      2.97000000	      9.01108078	     -1.12220188	      4.83544016	      0.47344519	      0.93232459	     -0.09223215	     -2.64094663	      2.09950413	     -0.93400815	    -56.58020074	     -5.22032040	     11.75732202	     11.16411778	      0.88832693	     -3.09332494	    -32.17811696	     19.85174768	    -20.40288209	    -15.27025083	      0.58860479	     -7.94002320
      2.98000000	      8.91256175	     -1.11693473	      4.48938690	      0.46479047	      0.93075652	     -0.09092332	     -4.15454617	      2.37507517	     -0.53685837	    -55.28347179	     -5.28391398	     11.97710578	     12.10858531	      0.86171281	     -3.23913416	    -32.63240305	     19.43227928	    -20.49727222	    -15.02601954	      0.57209832	     -7.47636634
